<svg width="853" height="449" viewBox="0 0 853 449" fill="none" xmlns="http://www.w3.org/2000/svg">
<g clip-path="url(#clip0_605_113)">
<rect width="853" height="449" rx="32" fill="black"/>
<g filter="url(#filter0_f_605_113)">
<path d="M3.33485 -45.5617L-72.8879 61.4341L-26.0382 98.1132L28.4841 162.016L51.6916 63.7172L193.565 45.7721L3.33485 -45.5617Z" fill="#30BAEB"/>
</g>
<g filter="url(#filter1_f_605_113)">
<path d="M787.285 506.216L882.424 415.626L843.385 370.725L801.978 297.638L760.541 389.748L617.84 380.448L787.285 506.216Z" fill="#EC3237"/>
</g>
<g filter="url(#filter2_f_605_113)">
<path d="M855.565 -15.9131L731.323 -58.599L709.465 -3.2595L663.684 67.1704L764.526 61.4961L822.036 192.426L855.565 -15.9131Z" fill="#0DE7E6"/>
</g>
<g opacity="0.2" filter="url(#filter3_b_605_113)">
<rect width="853" height="449" fill="url(#paint0_linear_605_113)"/>
</g>
</g>
<defs>
<filter id="filter0_f_605_113" x="-306.888" y="-279.562" width="734.453" height="675.578" filterUnits="userSpaceOnUse" color-interpolation-filters="sRGB">
<feFlood flood-opacity="0" result="BackgroundImageFix"/>
<feBlend mode="normal" in="SourceGraphic" in2="BackgroundImageFix" result="shape"/>
<feGaussianBlur stdDeviation="117" result="effect1_foregroundBlur_605_113"/>
</filter>
<filter id="filter1_f_605_113" x="383.84" y="63.6377" width="732.584" height="676.579" filterUnits="userSpaceOnUse" color-interpolation-filters="sRGB">
<feFlood flood-opacity="0" result="BackgroundImageFix"/>
<feBlend mode="normal" in="SourceGraphic" in2="BackgroundImageFix" result="shape"/>
<feGaussianBlur stdDeviation="117" result="effect1_foregroundBlur_605_113"/>
</filter>
<filter id="filter2_f_605_113" x="429.684" y="-292.599" width="659.88" height="719.025" filterUnits="userSpaceOnUse" color-interpolation-filters="sRGB">
<feFlood flood-opacity="0" result="BackgroundImageFix"/>
<feBlend mode="normal" in="SourceGraphic" in2="BackgroundImageFix" result="shape"/>
<feGaussianBlur stdDeviation="117" result="effect1_foregroundBlur_605_113"/>
</filter>
<filter id="filter3_b_605_113" x="-234" y="-234" width="1321" height="917" filterUnits="userSpaceOnUse" color-interpolation-filters="sRGB">
<feFlood flood-opacity="0" result="BackgroundImageFix"/>
<feGaussianBlur in="BackgroundImageFix" stdDeviation="117"/>
<feComposite in2="SourceAlpha" operator="in" result="effect1_backgroundBlur_605_113"/>
<feBlend mode="normal" in="SourceGraphic" in2="effect1_backgroundBlur_605_113" result="shape"/>
</filter>
<linearGradient id="paint0_linear_605_113" x1="889" y1="460" x2="-218" y2="-125" gradientUnits="userSpaceOnUse">
<stop stop-color="white"/>
<stop offset="1" stop-color="white" stop-opacity="0"/>
</linearGradient>
<clipPath id="clip0_605_113">
<rect width="853" height="449" rx="32" fill="white"/>
</clipPath>
</defs>
</svg>
