<svg width="24" height="24" viewBox="0 0 24 24" fill="none" xmlns="http://www.w3.org/2000/svg">
<g clip-path="url(#clip0_345_626)">
<path d="M12 0C18.6274 0 24 5.3726 24 12C24 18.6274 18.6274 24 12 24C5.3726 24 0 18.6274 0 12C0 5.3726 5.3726 0 12 0ZM15.115 4.5H8.885C6.3314 4.5 4.604 6.1524 4.5045 8.6552L4.5 8.8851V15.0847C4.5 16.3851 4.9234 17.504 5.7702 18.3206C6.5284 19.0506 7.5212 19.4418 8.652 19.494L8.9153 19.5H15.0847C16.3851 19.5 17.4737 19.0766 18.2601 18.3206C19.0221 17.5866 19.4418 16.563 19.4944 15.3726L19.5 15.1149V8.8851C19.5 7.6149 19.0766 6.5262 18.2903 5.7399C17.5565 4.9779 16.5328 4.5582 15.3669 4.5056L15.115 4.5ZM8.9152 5.8911H15.1451C16.0523 5.8911 16.8084 6.1633 17.3527 6.7077C17.824 7.2067 18.1174 7.8835 18.163 8.6684L18.1693 8.8851V15.1149C18.1693 16.0524 17.8366 16.8085 17.2923 17.3226C16.7933 17.7939 16.1163 18.0618 15.3083 18.1032L15.0846 18.1089H8.9153C8.0081 18.1089 7.252 17.8367 6.7077 17.3226C6.2087 16.8236 5.9384 16.1467 5.8968 15.3153L5.8911 15.0847V8.885C5.8911 7.9777 6.1633 7.2217 6.7077 6.6773C7.1789 6.206 7.8789 5.9381 8.6911 5.8967L8.9152 5.8911ZM12 8.0988C9.883 8.0988 8.129 9.8226 8.129 11.9698C8.12743 12.4786 8.22648 12.9827 8.42046 13.453C8.61444 13.9234 8.89952 14.3507 9.25929 14.7105C9.61905 15.0703 10.0464 15.3554 10.5168 15.5493C10.9871 15.7433 11.4912 15.8424 12 15.8408C14.1472 15.8408 15.871 14.0867 15.871 11.9698C15.871 9.8528 14.117 8.0988 12 8.0988ZM12 9.4899C13.3609 9.4899 14.4798 10.6089 14.4798 11.9698C14.4798 13.3306 13.3608 14.4496 12 14.4496C10.6391 14.4496 9.5202 13.3306 9.5202 11.9698C9.5202 10.6088 10.6392 9.4899 12 9.4899ZM16.0222 7.131C15.7896 7.131 15.5665 7.2234 15.4021 7.38787C15.2376 7.55234 15.1452 7.77541 15.1452 8.008C15.1452 8.24059 15.2376 8.46366 15.4021 8.62813C15.5665 8.7926 15.7896 8.885 16.0222 8.885C16.2548 8.885 16.4779 8.7926 16.6423 8.62813C16.8068 8.46366 16.8992 8.24059 16.8992 8.008C16.8992 7.77541 16.8068 7.55234 16.6423 7.38787C16.4779 7.2234 16.2548 7.131 16.0222 7.131Z" fill="white"/>
</g>
<defs>
<clipPath id="clip0_345_626">
<rect width="24" height="24" fill="white"/>
</clipPath>
</defs>
</svg>
